<svg id="Original" xmlns="http://www.w3.org/2000/svg" width="25.002" height="25.002" viewBox="0 0 25.002 25.002">
  <path id="Path_1026" data-name="Path 1026" d="M25,12.5A12.5,12.5,0,1,0,10.548,24.851V16.115H7.374V12.5h3.174V9.747c0-3.133,1.866-4.864,4.722-4.864a19.231,19.231,0,0,1,2.8.244V8.2H16.492a1.807,1.807,0,0,0-2.037,1.953V12.5h3.467l-.554,3.614H14.455v8.736A12.5,12.5,0,0,0,25,12.5Z" fill="#1877f2"/>
  <path id="Path_1027" data-name="Path 1027" d="M24.15,20.607l.554-3.614H21.237V14.649A1.808,1.808,0,0,1,23.274,12.7h1.576V9.619a19.223,19.223,0,0,0-2.8-.244c-2.856,0-4.722,1.731-4.722,4.864v2.754H14.156v3.614H17.33v8.736a12.636,12.636,0,0,0,3.907,0V20.607Z" transform="translate(-6.782 -4.492)" fill="#fff"/>
</svg>
