<svg id="Original" xmlns="http://www.w3.org/2000/svg" width="24.993" height="25.002" viewBox="0 0 24.993 25.002">
  <path id="Path_1028" data-name="Path 1028" d="M12.5,2.252c3.341,0,3.736.015,5.05.073a6.852,6.852,0,0,1,2.32.43,3.867,3.867,0,0,1,1.436.933,3.846,3.846,0,0,1,.933,1.436,6.881,6.881,0,0,1,.43,2.32c.059,1.319.073,1.714.073,5.05s-.015,3.736-.073,5.05a6.852,6.852,0,0,1-.43,2.32,4.122,4.122,0,0,1-2.369,2.369,6.88,6.88,0,0,1-2.32.43c-1.319.059-1.714.073-5.05.073s-3.736-.015-5.05-.073a6.851,6.851,0,0,1-2.32-.43A3.866,3.866,0,0,1,3.7,21.3a3.846,3.846,0,0,1-.933-1.436,6.88,6.88,0,0,1-.43-2.32c-.059-1.319-.073-1.714-.073-5.05s.015-3.736.073-5.05a6.851,6.851,0,0,1,.43-2.32A3.867,3.867,0,0,1,3.7,3.688a3.846,3.846,0,0,1,1.436-.933,6.88,6.88,0,0,1,2.32-.43C8.767,2.266,9.163,2.252,12.5,2.252ZM12.5,0C9.109,0,8.684.015,7.351.073A9.136,9.136,0,0,0,4.318.654,6.1,6.1,0,0,0,2.1,2.1,6.127,6.127,0,0,0,.654,4.313,9.163,9.163,0,0,0,.073,7.346C.015,8.684,0,9.109,0,12.5s.015,3.819.073,5.153A9.136,9.136,0,0,0,.654,20.69,6.1,6.1,0,0,0,2.1,22.907a6.112,6.112,0,0,0,2.213,1.441,9.163,9.163,0,0,0,3.033.581C8.679,24.988,9.1,25,12.5,25s3.82-.015,5.153-.073a9.136,9.136,0,0,0,3.033-.581,6.388,6.388,0,0,0,3.653-3.653,9.161,9.161,0,0,0,.581-3.033c.059-1.333.073-1.758.073-5.153s-.015-3.82-.073-5.153a9.135,9.135,0,0,0-.581-3.033A5.856,5.856,0,0,0,22.907,2.1,6.112,6.112,0,0,0,20.695.659,9.163,9.163,0,0,0,17.661.078C16.323.015,15.9,0,12.5,0Z" fill="#fff"/>
  <path id="Path_1029" data-name="Path 1029" d="M18.095,11.672a6.423,6.423,0,1,0,6.423,6.423A6.424,6.424,0,0,0,18.095,11.672Zm0,10.589a4.166,4.166,0,1,1,4.166-4.166A4.167,4.167,0,0,1,18.095,22.261Z" transform="translate(-5.591 -5.591)" fill="#fff"/>
  <path id="Path_1030" data-name="Path 1030" d="M36.936,9.806a1.5,1.5,0,1,1-1.5-1.5A1.5,1.5,0,0,1,36.936,9.806Z" transform="translate(-16.257 -3.979)" fill="#fff"/>
</svg>
